<svg width="253" height="63" viewBox="0 0 253 63" fill="none" xmlns="http://www.w3.org/2000/svg">
<path d="M215.666 27.1337C215.578 26.6881 215.488 26.2427 215.444 25.7526C215.222 23.2129 214.153 21.0298 212.726 18.9802C211.924 17.8664 210.855 17.0198 209.741 16.2178C208.538 15.2822 207.113 14.7922 205.731 14.2575C205.463 14.1684 206.043 12.9654 207.38 11.3169C207.602 11.0496 207.602 10.7823 207.424 10.5149C206.667 9.17829 205.641 8.15353 204.128 7.66344C201.989 6.95056 200.162 7.307 198.603 8.95552C197.979 9.62384 197.444 10.3367 196.91 11.0496C196.776 11.2278 196.686 11.4951 196.42 11.406C196.152 11.3615 196.242 11.0941 196.242 10.9159C196.062 9.04462 195.662 7.21789 195.083 5.43571C194.905 4.85651 194.771 4.76739 194.191 4.76739C193.345 4.72285 192.632 5.03472 192.008 5.56938C191.474 6.05947 190.984 6.63868 190.315 6.99512C189.869 7.26244 189.825 7.39611 190.181 7.84165C190.805 8.6882 191.34 9.57928 191.786 10.5595C192.052 11.1832 192.142 11.807 192.186 12.4753C192.186 12.6535 192.186 12.8763 191.964 13.0545C191.117 12.609 190.181 12.3862 189.246 12.2971C188.222 12.208 187.197 12.2525 186.217 12.5199C185.148 12.8318 184.3 13.411 183.499 14.1238C182.653 14.8813 182.073 15.7723 181.717 16.8417C181.494 17.51 181.583 17.6883 182.251 17.9555C182.341 18.0001 182.429 18.0001 182.519 18.0447C183.231 18.3565 184.034 18.6238 184.88 18.8021C184.702 19.0694 184.524 19.2475 184.346 19.3812C183.632 20.0495 182.919 20.7179 182.295 21.4754C181.094 22.9456 180.246 24.5496 179.756 26.3763C179.533 27.1783 179.444 28.0248 179.311 28.8714C178.999 30.9208 179.043 32.9258 179.489 34.9307C180.068 37.3813 181.226 39.5644 182.741 41.6139C183.766 43.0396 185.014 44.198 186.529 45.1783C187.776 45.9803 189.158 46.5149 190.583 46.9159C191.608 47.1833 192.678 47.406 193.745 47.6733C194.191 47.7624 194.549 47.9407 194.593 48.4307C194.637 48.7427 194.861 48.9208 195.127 49.0545C195.395 49.1883 195.662 49.3218 195.974 49.3218C197.444 49.4555 198.915 49.411 200.384 48.9654C200.964 48.7873 201.499 48.6981 202.077 48.7427C202.791 48.8317 203.414 48.609 203.994 48.208C204.35 47.9853 204.528 47.6733 204.528 47.2723C204.528 46.6931 204.84 46.4259 205.33 46.203C206.087 45.8466 206.801 45.4902 207.424 44.9555C209.028 43.6189 210.677 42.3713 211.88 40.6338C212.726 39.4308 213.529 38.2278 214.107 36.8911C214.865 35.1536 215.4 33.3268 215.8 31.4555C215.978 30.0298 215.934 28.604 215.666 27.1337ZM186.439 37.8714C186.351 37.9158 186.305 37.9604 186.217 37.9604C186.083 37.9604 185.949 37.9158 185.905 37.8714C185.771 37.8268 185.681 37.7377 185.593 37.6931C185.014 37.2476 184.658 36.713 184.434 36.2674C183.677 34.9307 183.187 33.4159 182.919 31.7673C182.831 31.0099 182.741 30.2525 182.965 29.4505C183.053 28.9605 183.321 28.515 183.722 28.2475C184.078 27.9803 184.346 28.0248 184.478 28.114C184.612 28.1585 184.836 28.3367 184.836 28.7823C184.836 29.0495 184.88 29.406 184.836 29.7624C184.702 31.2328 184.924 32.7031 185.459 34.307C185.548 34.5743 185.637 34.8862 185.727 35.1536C185.949 35.8664 186.217 36.6239 186.529 37.3367C186.573 37.4258 186.707 37.6931 186.439 37.8714ZM187.91 22.8565C187.731 23.1683 187.553 23.4358 187.375 23.6139C186.975 24.0149 186.573 24.4605 186.261 24.9506L186.171 25.0842C185.905 25.4407 185.681 25.7972 185.37 26.109C185.148 26.3763 184.924 26.4209 184.79 26.4209H184.702C184.478 26.3763 184.256 26.1536 184.166 25.8417C183.988 25.3516 184.122 24.906 184.256 24.505C184.478 23.703 185.192 22.6338 185.771 22.1436C186.217 21.7426 186.707 21.5645 187.286 21.6089C187.598 21.6535 187.864 21.7872 187.998 22.0099C188.088 22.2328 188.044 22.5446 187.91 22.8565Z" fill="#222227"/>
<path d="M252.204 40.9457C251.402 40.2328 250.555 39.4754 249.797 38.7178C247.57 36.4902 245.52 34.0842 243.382 31.8119C241.689 29.9853 240.174 27.9803 238.481 26.109C238.303 25.9307 238.169 25.6635 238.035 25.4852C237.723 25.1287 237.767 24.7723 237.991 24.3713C238.703 23.1239 239.372 21.8764 240.13 20.6734C243.248 15.6387 246.277 10.6041 249.485 5.61396C249.931 4.94564 249.931 4.81197 249.308 4.36643C247.481 2.98523 245.565 1.78227 243.471 0.802073C242.891 0.534746 242.313 0.26742 241.689 0.133756C241.332 0.0446473 241.066 0.133756 240.842 0.356529C240.708 0.534746 240.574 0.757519 240.442 0.935736C239.906 1.87138 239.417 2.80702 238.881 3.74267C237.189 6.50504 235.496 9.22286 233.803 11.9407L232.868 13.5446C232.288 14.5694 231.708 15.5496 231.085 16.5743C230.863 16.9753 230.773 16.9753 230.461 16.6189C229.881 15.9952 229.392 15.3268 228.902 14.6585C226.985 12.0744 225.248 9.44563 223.287 6.90604C222.887 6.37137 222.797 6.32682 222.129 6.59416C220.436 7.21792 218.921 8.19811 217.54 9.31198C216.872 9.84663 216.158 10.3813 215.58 11.0942C214.957 11.8516 215.089 12.1189 215.491 12.7427C217.05 15.3268 219.055 17.6437 220.748 20.1387C222.085 22.0545 223.466 23.8813 224.802 25.7526C224.936 25.9307 225.07 26.109 225.07 26.3317C225.07 26.5546 224.892 26.7327 224.802 26.911C223.466 29.2278 222.04 31.5447 220.792 33.9061C219.545 36.2675 218.209 38.5843 216.916 40.9011C215.58 43.2625 214.287 45.5793 212.952 47.8962C211.615 50.213 210.233 52.4852 209.03 54.8466C208.674 55.5595 208.674 55.604 209.208 56.2277C210.411 57.5644 211.748 58.812 213.264 59.8367C214.465 60.6833 215.669 61.4853 216.96 62.109C217.674 62.4208 217.941 62.3318 218.297 61.6634C219.946 58.4556 221.684 55.2922 223.377 52.0842C224.356 50.213 225.338 48.3417 226.273 46.4259L228.546 41.8812C229.481 40.01 230.417 38.1833 231.441 36.401C231.842 35.7327 231.842 35.7327 232.332 36.312L232.376 36.3566C234.783 39.2971 237.189 42.1932 239.684 45.0892C240.708 46.2922 241.733 47.4506 242.891 48.5644C243.515 49.1437 243.738 49.1437 244.452 48.7427C245.164 48.2971 245.831 47.8516 246.501 47.3614C248.282 46.0249 250.065 44.6882 251.668 43.0842C251.936 42.8169 252.158 42.5497 252.338 42.2376C252.738 41.6139 252.738 41.4357 252.204 40.9457ZM219.457 14.213C219.367 14.2575 219.279 14.2575 219.189 14.2575C219.011 14.2575 218.833 14.1684 218.743 14.0347L218.521 13.7229C218.119 13.2328 217.718 12.6981 217.406 12.1189C217.274 11.8516 217.318 11.5397 217.585 11.3169C217.852 11.0942 218.163 11.1387 218.387 11.406C218.877 11.9407 219.279 12.609 219.679 13.1882L219.768 13.2773C219.812 13.3664 219.812 13.4555 219.857 13.5001V13.5892C219.812 13.9456 219.679 14.1239 219.457 14.213ZM227.253 23.7922C227.165 24.0149 226.941 24.104 226.719 24.104C226.407 24.104 226.229 23.8813 226.095 23.7476C225.16 22.6338 224.356 21.5645 223.377 20.2278C222.307 18.7576 221.462 17.5546 220.792 16.3962C220.658 16.2179 220.392 15.7723 220.882 15.4605C221.194 15.2377 221.506 15.3268 221.773 15.6833C222.351 16.3516 222.843 17.0644 223.333 17.7773C223.599 18.1783 223.912 18.5793 224.178 18.9803C224.802 19.8268 225.382 20.6288 226.005 21.4754C226.407 22.0545 226.807 22.5892 227.253 23.1683C227.297 23.3021 227.387 23.5249 227.253 23.7922ZM176.772 35.911C175.525 32.2575 173.342 29.406 169.778 27.7576C169.242 27.4901 169.242 27.4012 169.688 27.0446C171.605 25.6189 172.674 23.6139 173.432 21.4308C173.966 19.8268 174.278 18.1783 174.01 16.4853C173.476 13.0991 171.871 10.4258 168.931 8.5991C166.614 7.12881 164.075 6.23772 161.402 5.65851C159.931 5.34663 158.462 5.21296 156.946 5.07931C155.342 4.94564 153.694 5.07931 152.09 5.25752C151.199 5.34663 150.619 5.74761 150.397 6.68326C150.085 7.97534 149.817 9.26742 149.461 10.5595C148.614 13.812 148.08 17.109 147.679 20.4505C147.545 21.5645 147.501 22.7229 147.411 23.8813C147.367 24.4605 147.367 24.4605 146.832 24.5496C145.897 24.6833 145.005 24.7723 144.07 24.8615C143.312 24.9506 143.223 25.0843 143.045 25.8417C142.956 26.3317 142.288 30.119 142.733 33.5496C142.822 34.3516 143.001 34.4406 143.847 34.3516C144.604 34.2625 145.362 34.1288 146.119 33.9952C146.609 33.9061 146.609 33.9506 146.565 34.3962C146.119 38.0941 145.852 41.8367 145.763 45.3119V50.1238C145.763 50.8367 146.075 51.416 146.699 51.7724C147.367 52.218 148.08 52.6189 148.837 52.8862C150.798 53.5545 152.758 54.0892 154.808 54.1784C157.346 54.3119 159.887 54.2673 162.426 53.9555C164.921 53.6436 167.283 52.9754 169.51 51.8615C170.981 51.1041 172.362 50.1684 173.476 48.8763C175.391 46.604 176.594 44.0645 177.04 41.1238C177.308 39.3863 177.352 37.604 176.772 35.911ZM145.496 29.1833C145.496 29.5397 145.273 29.7624 144.961 29.807H144.827C144.515 29.807 144.293 29.6288 144.204 29.317C144.159 29.0495 144.159 28.7823 144.159 28.604V28.3367C144.159 27.8021 144.159 27.4012 144.248 27.0002C144.382 26.4209 144.738 26.3763 144.961 26.3763C145.139 26.3763 145.54 26.51 145.54 27.1337C145.54 27.8021 145.54 28.4704 145.496 29.1833ZM152.223 12.7427C151.822 14.8367 151.466 17.109 151.109 19.6485C151.02 20.1832 150.976 20.6734 150.887 21.2079C150.842 21.6981 150.753 22.1436 150.708 22.6338C150.664 22.9011 150.619 23.2575 150.174 23.3912H149.996C149.862 23.3912 149.728 23.3466 149.639 23.2575C149.506 23.1683 149.372 22.9456 149.372 22.5001L149.416 21.8764C149.639 19.4258 149.862 16.8863 150.352 14.4357C150.486 13.812 150.619 13.0991 150.931 12.3862C151.109 11.9852 151.377 11.8516 151.689 11.9407C151.956 11.9852 152.312 12.1635 152.223 12.7427ZM153.382 7.79713C153.204 8.64366 153.025 9.40108 152.803 10.114C152.713 10.4258 152.491 10.5595 152.223 10.5595H152.09C151.822 10.5149 151.555 10.3367 151.6 9.75751L151.644 9.44563C151.733 8.82187 151.867 8.15355 152.134 7.48525C152.268 7.12881 152.58 6.99514 152.892 7.08425C153.293 7.17336 153.471 7.44069 153.382 7.79713ZM157.392 16.708C157.48 15.8614 157.614 15.0149 157.792 14.1684C157.926 13.411 158.06 13.3219 158.773 13.3664C160.065 13.5001 161.356 13.6783 162.604 14.1684C164.876 15.0595 166.08 17.1536 165.768 19.5595C165.5 21.8764 164.209 23.3466 162.114 24.1486C160.644 24.7277 159.085 24.9506 157.48 24.9506C156.768 24.9506 156.768 24.906 156.723 24.2378V23.3912C156.902 21.1635 157.08 18.9357 157.392 16.708ZM166.036 42.3268C164.609 43.7081 162.872 44.599 160.912 44.9555C159.397 45.2675 157.838 45.312 156.279 45.2229C155.654 45.1783 155.565 45.0892 155.565 44.4209C155.565 42.9507 155.743 36.4456 155.877 34.6635C155.965 33.6388 155.921 33.6388 156.99 33.4605C159.129 33.1486 161.268 33.0595 163.361 33.6388C164.832 34.0396 166.08 34.7972 166.837 36.1783C167.907 38.0496 167.595 40.7674 166.036 42.3268ZM59.8174 52.7081C58.0352 50.7031 56.5204 48.5199 54.961 46.3367C52.2432 42.5051 50.1045 38.3614 47.9214 34.2625C47.6985 33.8615 47.565 33.4159 47.3867 33.0149C47.2085 32.5248 47.253 32.5248 47.6985 32.3467C48.0995 32.1684 48.5451 32.0794 48.9461 31.8565C51.8866 30.3417 55.2283 27.5793 55.5401 22.7229C55.6739 20.718 55.362 18.713 54.5154 16.8417C54.2036 16.1733 53.9362 15.4605 53.446 14.9258C52.8223 14.213 52.1986 13.4555 51.5748 12.7427C50.8173 11.8961 49.9264 11.2278 48.9015 10.7377C46.451 9.44563 43.7777 8.95554 41.0599 8.91098C38.4312 8.91098 35.7134 8.86643 32.951 9.04465C31.5699 9.13375 30.1886 9.31198 28.8521 9.5793C28.1392 9.71296 27.9609 9.89118 27.9609 10.6486C27.9609 11.8516 28.0055 13.01 28.0501 14.213C28.0947 14.9258 28.1836 15.6833 28.3174 16.3962C28.4065 16.9753 28.5402 17.0644 29.1194 17.0644C29.6095 17.0644 30.0996 17.0644 30.6342 17.109C31.4362 17.1536 31.4362 17.1536 31.4362 18.0001C31.4362 18.0893 31.258 21.4754 31.2135 23.1239C31.1689 24.104 30.7233 29.6288 30.7233 31.4109C30.7233 33.9952 30.545 36.5347 30.545 39.1188C30.545 40.1437 30.2332 45.802 30.3223 47.6289C30.3669 48.7427 30.3669 49.8566 30.545 50.9704C30.6342 51.5495 30.7233 51.6387 31.3025 51.7278C32.4165 51.9061 33.5749 51.8615 34.7333 51.9505C35.6688 51.9951 36.6491 51.9505 37.5847 51.9061C38.1639 51.8615 38.3421 51.6832 38.3421 51.1041V50.6585C38.3421 48.8763 38.2975 47.0942 38.3866 45.3119C38.4758 42.3714 38.6985 39.4308 38.7876 36.4456C38.7876 36.2229 38.7876 35.7773 38.9214 35.7327C39.0549 35.6882 39.2778 36.2229 39.4115 36.4902C40.0798 37.8714 40.8372 39.2526 41.5946 40.5893C43.4659 43.7526 45.4708 46.7823 47.4312 49.9011C48.6788 51.817 50.0599 53.6436 51.4858 55.4258C52.1095 56.2277 52.7332 56.9852 53.4906 57.6536C53.9362 58.0546 54.0699 57.9209 54.6044 57.6536C55.6739 57.0743 58.3471 55.2476 59.6392 54.1338C60.3521 53.5099 60.3966 53.3764 59.8174 52.7081ZM30.857 13.9456C30.857 14.3021 30.6342 14.5694 30.2778 14.6139H30.1886C29.8768 14.6139 29.6541 14.3912 29.5649 14.0793C29.4312 13.3664 29.2976 12.609 29.4312 11.8516V11.7179C29.4312 11.6288 29.4312 11.5842 29.4758 11.4951C29.5649 11.0942 29.8322 10.8714 30.2332 10.9159C30.6342 10.9605 30.857 11.2724 30.8125 11.6734C30.7679 12.1189 30.8125 12.609 30.8125 13.0545V13.4555C30.857 13.6338 30.857 13.812 30.857 13.9456ZM33.6193 34.2179V34.9308H33.5303V35.1536C33.5303 35.51 33.5303 35.8665 33.4857 36.2229C33.4857 36.7576 33.1739 36.8912 32.951 36.8912H32.9064C32.55 36.8912 32.3273 36.6684 32.3273 36.2675C32.2827 35.4209 32.2827 34.5298 32.3719 33.3713V33.2822C32.3719 33.1932 32.3719 33.1041 32.4165 33.0149C32.4609 32.6139 32.7283 32.3912 33.0402 32.4358C33.4411 32.4358 33.6639 32.7031 33.6639 33.1041C33.6639 33.4605 33.6639 33.8169 33.6193 34.2179ZM34.1094 24.505C34.0648 25.708 33.9759 26.911 33.8867 28.114C33.8421 28.8714 33.7976 29.6734 33.753 30.4308C33.753 30.6535 33.7084 31.1437 33.1739 31.1882H33.1293C32.55 31.1882 32.5054 30.6535 32.5054 30.4308C32.3719 28.9606 32.4609 27.5347 32.5946 26.1536C32.5946 25.8862 32.6392 25.5743 32.6392 25.307V24.906L32.6837 24.5942C32.8175 22.9011 32.9064 21.1635 33.1293 19.4704C33.1739 19.0248 33.2629 18.5793 33.352 18.1783C33.4411 17.7773 33.7084 17.5546 34.0648 17.5991C34.2431 17.5991 34.6441 17.7327 34.5996 18.3566C34.3323 20.3615 34.1986 22.4555 34.1094 24.505ZM45.8273 24.6388C44.9807 25.2179 44.0452 25.3962 43.0649 25.5297C42.7085 25.5743 42.3075 25.5743 41.9065 25.6189C41.3273 25.6635 40.748 25.6189 40.2133 25.4852C39.6788 25.3962 39.5896 25.307 39.5896 24.7277C39.6788 23.4358 39.8569 22.1436 40.0798 20.8515C40.2579 19.6931 40.4808 18.4901 40.7035 17.3317C40.8372 16.6634 40.8372 16.708 41.4609 16.708C42.6193 16.7526 43.7331 17.0644 44.758 17.5546C46.4955 18.312 47.4312 19.4258 47.4758 21.6981C47.5204 22.9902 46.852 23.9258 45.8273 24.6388ZM119.075 43.7081C118.986 42.8169 118.897 41.9704 118.585 41.1238C118.406 40.6338 118.05 40.3218 117.515 40.3218C116.357 40.2772 115.199 40.1883 113.996 40.1883C111.545 40.1883 109.139 40.3664 106.733 40.7228C104.372 41.0792 102.011 41.3912 99.7381 42.0595C99.6045 42.1041 99.3817 42.1932 99.3371 42.0595C99.2927 41.9258 99.56 41.614 99.6937 41.3912C101.966 37.916 104.55 34.6635 107.134 31.4109C109.139 28.8268 111.278 26.2872 113.55 23.9258C113.773 23.7031 113.996 23.4358 113.996 23.0794C114.085 20.2278 113.773 17.3763 113.505 14.5248C113.461 13.9902 113.283 13.8565 112.704 13.8565C112.481 13.8565 112.213 13.8565 111.991 13.812C107.045 13.7674 93.5005 13.9902 91.7184 14.1684C90.159 14.3466 88.6441 14.4803 87.0847 14.6585C86.461 14.7476 86.2827 14.9258 86.2827 15.5496C86.2381 15.9506 86.2381 16.3516 86.2381 16.7526C86.2827 18.6238 86.2827 20.4951 86.7729 22.3665C86.951 23.0794 87.1293 23.2129 87.7976 23.1239C88.555 23.0348 89.3124 22.9902 90.0698 22.8565C92.0748 22.5892 94.0798 22.3665 96.0847 22.2328L101.699 21.8318C102.367 21.7872 103.703 21.6089 103.793 21.7872C103.882 21.9209 103.481 22.3665 103.302 22.5892C102.322 23.8368 101.298 24.9952 100.407 26.2872C98.357 29.1833 96.3966 32.0794 94.347 34.9308C92.3421 37.6486 90.5599 40.5447 88.4658 43.1734C88.2431 43.4406 88.0204 43.7526 87.8421 44.0645C87.7084 44.2872 87.664 44.5101 87.7976 44.8219C88.6441 47.1387 89.4907 49.5001 90.2927 51.817C90.3817 52.1288 90.5154 52.3961 90.6045 52.6635C90.6937 52.9754 90.9164 53.0645 91.2282 52.9754L91.7629 52.8417C92.7876 52.5744 93.7679 52.3071 94.7926 52.0397C98.6243 51.1041 102.545 50.4357 106.421 49.7674C110.164 49.1437 113.951 48.7427 117.783 48.7427C119.03 48.7427 119.164 48.6536 119.208 47.3614C119.298 46.203 119.164 44.9555 119.075 43.7081ZM89.1788 18.8911C89.1788 19.2477 88.956 19.515 88.5995 19.5595H88.5104C88.1985 19.5595 87.9758 19.3367 87.8867 19.0248C87.753 18.312 87.6194 17.5546 87.753 16.7971V16.6634C87.753 16.5743 87.753 16.5299 87.7976 16.4407C87.8867 16.0397 88.154 15.8169 88.555 15.8614C88.956 15.906 89.1788 16.2179 89.1343 16.6189C89.0897 17.0644 89.1343 17.5546 89.1343 18.0001V18.4011C89.1788 18.5793 89.1788 18.7576 89.1788 18.8911ZM103.837 24.4605L103.971 24.2378C104.283 23.6585 104.639 23.0794 105.129 22.5892C105.352 22.3665 105.664 22.3219 105.931 22.4555C106.154 22.5892 106.288 22.7673 106.288 23.0794C106.288 23.3466 106.154 23.5249 106.02 23.6585C105.976 23.7031 105.931 23.7476 105.887 23.8368C105.664 24.1932 105.397 24.5496 105.129 24.906L105.04 25.0398C104.951 25.1733 104.773 25.3962 104.416 25.3962H104.327C104.104 25.3962 103.926 25.2625 103.793 25.0398C103.703 24.906 103.703 24.6833 103.837 24.4605ZM97.6887 35.599C97.4213 36 97.1986 36.3566 96.9313 36.7576C96.8421 36.9357 96.6639 37.1584 96.352 37.1584H96.3074C96.0847 37.1584 95.9064 37.0694 95.7729 36.8466C95.6392 36.6239 95.6392 36.3566 95.7729 36.1337L96.1739 35.51C96.5303 34.9753 96.8421 34.4406 97.154 33.9061C98.0451 32.3912 99.1144 30.8764 100.317 29.2278L100.674 28.7377C101.164 28.0694 101.699 27.3566 102.278 26.7327C102.545 26.4654 102.813 26.3763 103.08 26.51C103.347 26.5992 103.436 26.8219 103.481 27.1337V27.2229C103.436 27.4901 103.258 27.713 103.124 27.8911L102.991 28.0249C102.5 28.6931 102.055 29.3616 101.565 30.0298C100.808 31.0991 100.05 32.1238 99.2927 33.1932L97.6887 35.599Z" fill="#222227"/>
<path d="M85.6995 33.4605C85.6104 33.0149 85.5212 32.5694 85.3875 32.1238C84.9865 30.6535 84.6301 29.1833 84.1401 27.7576C83.9172 27.0446 83.6499 26.911 82.9371 27.0892C82.2687 27.2229 81.645 27.4012 80.9767 27.5347C79.6846 27.8466 79.7291 28.2032 79.3281 26.5546C78.6153 23.6585 76.5212 14.3021 76.031 11.5843C75.9421 10.9605 75.6746 10.8714 75.3628 10.7823C74.0706 10.4704 72.9122 10.2476 71.6648 10.0694C70.1054 9.80209 68.5014 9.57932 67.1202 9.40111C66.0955 9.35656 65.9172 9.49021 65.5608 10.2031C64.0459 13.411 63.1104 16.7972 61.9964 20.1387C60.838 23.7031 59.5906 27.2675 58.6103 30.8764C57.6747 34.4852 56.8282 38.0942 56.0708 41.7031C55.8033 42.9061 55.8479 43.0397 56.9617 43.5298C59.0113 44.4655 61.15 45.2229 63.3331 45.8021C64.0459 45.9803 64.0905 45.9358 64.3132 45.2675C64.7588 43.7971 65.0262 42.3268 65.3826 40.812C65.7391 39.1634 65.7391 39.1634 67.343 38.6289C68.947 38.0942 70.5064 37.6486 72.1102 37.1585C72.7787 36.9357 72.7787 36.9803 73.0014 37.6486C73.4024 39.1634 73.8034 40.7228 74.2935 42.2377C74.7836 43.9308 75.3628 45.6685 75.8083 47.3615C75.9865 48.0299 76.1202 48.6982 76.343 49.3664C76.5658 50.1239 76.6549 50.1684 77.4123 49.9901C79.5509 49.5447 81.645 48.9209 83.7391 48.208C84.0509 48.1189 84.3182 47.9853 84.5855 47.807C85.1202 47.4506 85.1648 47.3169 85.0311 46.6932C84.6301 45.0446 84.0509 43.4407 83.5608 41.8367C83.0707 40.0991 82.6697 38.3169 82.1351 36.5793C82.0014 36.1783 81.9122 35.7328 81.7787 35.3318C81.6895 35.1091 81.7787 34.9753 82.0014 34.9308C82.1351 34.9308 82.2241 34.8862 82.3578 34.8862C83.249 34.7081 84.1845 34.5744 85.0756 34.3962C85.6993 34.3962 85.8331 34.1734 85.6995 33.4605ZM66.4965 16.5743L66.0509 17.8219C65.6499 18.9357 65.2489 20.1387 64.8479 21.2525C64.6252 22.0099 64.3578 22.7229 64.1351 23.4804C64.0014 23.8814 63.8678 24.3268 63.7786 24.7278C63.3777 25.9753 63.0212 27.2229 62.6202 28.4704L62.353 29.2724C62.2192 29.718 61.9074 29.807 61.7291 29.807H61.551C61.1944 29.718 61.0163 29.4506 61.0163 29.0941V29.0496C61.1945 28.114 61.4618 27.2229 61.7291 26.4209C61.952 25.708 62.1747 24.9506 62.3974 24.2378C62.7984 22.9902 63.1994 21.6535 63.6004 20.4061C64.0459 19.0694 64.5806 17.7327 65.2935 16.1289C65.5608 15.5942 65.9618 15.6833 66.0955 15.7278C66.4965 15.8169 66.6302 16.1733 66.4965 16.5743ZM66.7637 14.213C66.6746 14.213 66.5856 14.213 66.4965 14.1684C66.14 14.0348 65.9618 13.7229 66.0955 13.3219L66.14 13.1882C66.3182 12.5645 66.4965 11.9407 66.8083 11.3615C66.9866 11.0051 67.2985 10.8714 67.6103 10.9605C67.9222 11.0496 68.1004 11.3169 68.1004 11.6734V11.7625L68.0559 11.8962C68.0113 11.9853 67.9667 12.1189 67.9222 12.2526L67.833 12.4754C67.6549 12.9209 67.5212 13.3219 67.343 13.7674C67.2539 14.0348 67.031 14.213 66.7637 14.213ZM70.7291 30.7427C69.6153 31.01 68.635 31.2774 67.5212 31.5893C67.2985 31.6338 67.2093 31.6784 67.2985 31.0545C67.833 28.1586 68.9914 23.1239 69.036 22.9902C69.0806 22.8565 69.1697 22.7229 69.348 22.7674C69.4816 22.7674 69.5261 22.9011 69.5261 23.0348C69.7934 23.8368 69.9717 24.6834 70.1944 25.5298C70.5508 27.0002 70.9074 28.4704 71.2193 29.9853C71.3528 30.5644 71.3083 30.609 70.7291 30.7427ZM144.422 11.0942C142.907 9.75755 141.259 8.68824 139.432 7.79715C139.254 7.70803 139.076 7.66348 138.897 7.57438C138.14 7.3516 137.873 7.44071 137.516 8.15359C136.848 9.35655 136.269 10.6041 135.6 11.8516C134.086 14.6585 132.392 17.3763 130.655 20.0051C130.298 20.5397 130.076 20.5843 129.719 20.0051C127.714 16.9309 125.665 13.9011 123.794 10.7377C122.145 7.88626 120.496 5.03477 119.026 2.09418C118.714 1.47042 118.581 1.42586 117.957 1.69319C115.997 2.53972 114.036 3.47536 112.254 4.63378C111.853 4.9011 111.496 5.12388 111.14 5.43577C110.739 5.74765 110.694 5.97042 110.917 6.41595C111.095 6.81695 111.318 7.17338 111.541 7.52982C112.833 9.75755 114.17 11.9407 115.506 14.1684C117.779 18.0447 120.051 21.8764 122.68 25.4853C123.972 27.2675 125.308 29.0496 126.6 30.8318C126.823 31.0991 126.912 31.411 126.912 31.7674C126.823 36.8466 127.358 44.0645 127.625 46.5149C127.848 48.5199 128.16 50.5248 128.65 52.4852C128.828 53.2872 128.828 53.2427 129.63 53.2872C130.922 53.3764 132.214 53.1535 133.462 52.9308C134.62 52.7525 135.823 52.5298 136.937 52.0843C137.917 51.6833 138.051 51.4606 137.828 50.4357C137.16 47.4506 135.823 37.0695 135.556 34.8862C135.333 32.8368 135.199 30.8318 135.11 28.7823C135.11 28.4259 135.199 28.114 135.422 27.8022C137.249 25.1733 139.076 22.5892 140.769 19.8714C142.284 17.4654 143.62 14.9704 144.69 12.3417C145.001 11.7179 145.001 11.5843 144.422 11.0942ZM116.353 9.98032C116.264 10.0694 116.13 10.0694 116.041 10.0694C115.863 10.0694 115.685 9.98032 115.551 9.80209C114.838 9.00012 114.214 8.06447 113.724 7.03972C113.68 6.95062 113.68 6.90606 113.68 6.8615V6.77239C113.724 6.37141 113.947 6.23774 114.125 6.19318C114.393 6.10409 114.66 6.23774 114.838 6.46051C115.284 7.08427 115.685 7.70803 116.085 8.28724C116.264 8.59912 116.442 8.911 116.576 9.13379C116.709 9.49021 116.62 9.80209 116.353 9.98032ZM123.66 21.5645C123.526 21.7427 123.348 21.8764 123.081 21.8764H122.992C122.68 21.8318 122.457 21.5645 122.323 21.3417C121.744 20.5397 121.209 19.7377 120.719 18.9357L120.318 18.312C119.204 16.5743 118.135 14.8368 117.199 13.1437C117.11 13.01 117.066 12.8763 116.977 12.7427C116.887 12.5645 116.798 12.3863 116.665 12.208C116.353 11.7179 116.576 11.4506 116.754 11.2724C117.199 10.9605 117.556 11.4061 117.645 11.5397C118.09 12.1635 118.491 12.8318 118.892 13.5001C119.115 13.8566 119.293 14.213 119.516 14.5694C120.764 16.5743 122.056 18.5793 123.348 20.5843C123.393 20.6288 123.437 20.718 123.482 20.7625L123.571 20.8961C123.794 21.119 123.794 21.3417 123.66 21.5645ZM27.6004 36.0892C26.7093 35.7328 25.7737 35.4209 24.838 35.1982C23.5013 34.8416 22.1202 34.7526 20.7391 34.7526C20.2044 34.7526 19.848 34.8862 19.5807 35.4209C19.3133 35.9556 19.046 36.4902 18.6896 36.9803C17.9321 38.0942 16.9964 38.9853 15.7043 39.4309C13.0757 40.3664 10.4024 38.7624 9.46674 36.713C8.97665 35.6436 8.62021 34.4852 8.442 33.3268C8.08556 31.0545 8.17466 28.8714 8.9321 26.6882C9.9123 24.0595 11.8727 22.6784 14.5905 22.2774C15.5262 22.1437 16.4619 22.2774 17.3083 22.6338C18.4667 23.0794 19.1797 23.9704 19.8034 24.9952C20.2044 25.708 20.2044 25.708 20.9172 25.4408C23.0114 24.6388 24.9272 23.4804 26.7984 22.2328C27.244 21.921 27.244 21.921 27.0211 21.4308C26.6647 20.6288 26.1747 19.8714 25.7292 19.114C23.4123 14.8813 19.6697 13.0546 14.9915 12.9209C13.5658 12.8763 12.14 13.1882 10.7588 13.5892C9.28853 14.0348 7.86278 14.614 6.65981 15.5496C4.56575 17.1982 2.87269 19.1586 1.80338 21.609C0.466755 24.6834 -0.0679106 27.9357 0.0212029 31.2774C0.0657596 37.8269 1.89249 41.8812 3.67467 44.2872C5.45684 46.6486 7.59546 48.5644 10.5361 49.411C12.2291 49.9011 13.9667 50.1684 15.7043 49.9011C17.6203 49.5893 19.4024 48.9654 21.0064 47.8962C22.7439 46.7378 24.2143 45.3565 25.2836 43.5744C26.2637 41.9258 27.0211 40.1437 27.7341 38.3614C27.9123 37.9604 28.0014 37.515 28.1351 37.0695C28.2687 36.4456 28.1796 36.312 27.6004 36.0892ZM6.83804 19.3367C5.90239 20.5397 5.27863 21.921 4.69943 23.2575C3.76378 25.4853 3.27367 27.9357 3.31823 30.52C3.31823 30.8318 3.31823 31.0545 3.36279 31.2774C3.40734 31.812 3.09546 31.9457 2.91725 31.9902H2.78358C2.64991 31.9902 2.51625 31.9457 2.42714 31.9011C2.29349 31.812 2.20437 31.6338 2.20437 31.4555C2.15982 31.2774 2.15982 31.0991 2.11526 30.921C2.02616 30.4754 1.98161 30.0298 1.98161 29.5843V29.317C1.98161 28.1586 2.20437 27.0446 2.38258 26.1536C2.82814 24.0149 3.67467 21.8764 5.05586 19.6487C5.27863 19.2477 5.59051 18.8911 5.94695 18.5347C6.21428 18.2674 6.57071 18.2229 6.8826 18.4901C7.06081 18.713 7.10536 19.0249 6.83804 19.3367ZM7.5509 17.7773C7.28358 17.5546 7.28358 17.1982 7.4618 16.9753C8.26378 15.9952 9.15486 15.416 10.1796 15.1486C10.3578 15.1041 10.5806 15.1486 10.7143 15.2377C10.8479 15.3714 10.937 15.5496 10.937 15.7278C10.937 15.9952 10.7588 16.2179 10.4915 16.2625C9.77863 16.4853 9.24398 16.9309 8.79843 17.3763C8.66477 17.51 8.5311 17.6437 8.30833 17.7773C8.17466 17.8664 8.08556 17.911 7.95189 17.911C7.81824 17.9556 7.68457 17.8664 7.5509 17.7773Z" fill="#222227"/>
</svg>
