<svg width="497" height="48" viewBox="0 0 497 48" fill="none" xmlns="http://www.w3.org/2000/svg">
<g filter="url(#filter0_d_1_83)">
<path d="M24.1588 0.890296C29.4218 0.890296 33.9564 2.7621 37.7627 6.50572L32.3352 11.9332C30.0327 9.66195 27.3228 8.52634 24.2058 8.52634C21.026 8.52634 18.3162 9.66195 16.0763 11.9332C13.8208 14.1888 12.693 16.9064 12.693 20.0861C12.693 23.2659 13.8208 25.9835 16.0763 28.2391C18.3006 30.4946 21.0104 31.6224 24.2058 31.6224C26.5553 31.6224 28.6934 30.9645 30.62 29.6488C32.39 28.4427 33.7136 26.892 34.5908 24.9967H23.7829V17.7366H43.2371C43.7384 24.2057 41.8979 29.5157 37.7157 33.6665C33.9407 37.4102 29.4139 39.282 24.1353 39.282C18.8096 39.282 14.2907 37.4102 10.5784 33.6665C6.81909 29.9386 4.93945 25.4118 4.93945 20.0861C4.93945 14.8075 6.81909 10.2728 10.5784 6.48223C14.3063 2.70728 18.8253 0.81981 24.1353 0.81981L24.1588 0.890296Z" fill="#272525"/>
<path d="M57.2066 1.12525H64.8192V39H57.2066V1.12525Z" fill="#272525"/>
<path d="M102.942 1.03127V8.62032H87.717V16.2564H99.1358V23.8454H87.717V39.047H80.1044V1.03127H102.942Z" fill="#272525"/>
<path d="M141.676 1.12525V8.66731H132.372V39H124.736V8.66731H115.408V1.12525H141.676Z" fill="#272525"/>
<path d="M166.101 31.5519C167.197 31.5519 168.2 31.1682 169.108 30.4007C170.048 29.6175 170.518 28.7168 170.518 27.6987C170.518 26.2263 169.641 25.0985 167.886 24.3153C167.307 24.049 166.516 23.7749 165.513 23.493L164.903 23.3285L164.339 23.164C163.9 23.0544 163.54 22.9526 163.258 22.8586C160.783 22.0128 158.762 20.7048 157.196 18.9348C155.442 16.9769 154.564 14.7761 154.564 12.3326C154.564 9.13722 155.7 6.41174 157.971 4.15617C160.227 1.91627 162.952 0.796314 166.148 0.796314C169.046 0.796314 171.575 1.7518 173.737 3.66277C175.898 5.54241 177.175 7.89979 177.567 10.7349L170.001 12.3326C170.001 11.2831 169.625 10.3825 168.873 9.63063C168.121 8.87877 167.229 8.50284 166.195 8.50284C165.13 8.50284 164.221 8.87877 163.469 9.63063C162.702 10.3981 162.318 11.3066 162.318 12.3561C162.318 13.8285 163.148 15.0033 164.809 15.8804C165.419 16.2094 166.179 16.5148 167.088 16.7968C167.385 16.8907 167.761 17.0082 168.215 17.1492L168.756 17.2902L169.273 17.4546C171.842 18.1908 173.94 19.4204 175.569 21.1434C177.371 23.0387 178.271 25.2395 178.271 27.7457C178.271 30.8941 177.05 33.6117 174.606 35.8986C172.21 38.1542 169.398 39.282 166.171 39.282C163.227 39.282 160.595 38.3343 158.277 36.439C155.959 34.528 154.58 32.1628 154.142 29.3434L161.707 27.7457C161.707 28.7638 162.177 29.6645 163.117 30.4476C164.025 31.1995 165.036 31.5754 166.148 31.5754L166.101 31.5519Z" fill="#272525"/>
<path d="M233.066 10.8289C232.909 10.1554 232.572 9.59147 232.056 9.13722C231.492 8.66731 230.842 8.43235 230.105 8.43235C228.429 8.43235 227.45 9.18421 227.168 10.6879C227.09 11.0952 227.356 11.8862 227.967 13.061C228.86 14.7996 229.8 16.3268 230.787 17.6426C231.351 18.4101 232.118 19.3029 233.089 20.3211L234.382 21.6603C234.93 22.2399 235.392 22.7255 235.768 23.117C236.645 24.0725 237.334 24.7696 237.835 25.2081C237.976 24.5346 238.07 23.7279 238.117 22.7881C238.133 22.4905 238.149 22.0598 238.164 21.4959L238.188 20.8145L238.211 20.0861L245.33 19.9921C245.221 24.4406 244.696 27.7065 243.756 29.7898L244.015 29.9542L244.297 30.1422C244.532 30.2832 244.735 30.4085 244.908 30.5181C245.409 30.8157 245.863 31.0664 246.27 31.27C247.414 31.8339 248.424 32.1002 249.301 32.0688L249.278 39.1175C247.649 39.1175 246.012 38.7886 244.367 38.1307C243.741 37.8644 243.075 37.5433 242.37 37.1674C242.088 37.0107 241.783 36.8384 241.454 36.6505C241.25 36.5252 240.968 36.3529 240.608 36.1336C240.169 35.8829 239.786 35.6088 239.457 35.3112C238.047 36.9246 236.089 38.0524 233.583 38.6946C231.797 39.1488 230.184 39.3759 228.743 39.3759C225.218 39.3759 222.234 38.1855 219.791 35.8046C217.363 33.4551 216.149 30.5886 216.149 27.2053C216.196 25.0124 216.752 23.2345 217.817 21.8718C218.882 20.509 220.002 19.2638 221.177 18.136C221.287 18.0264 221.498 17.8541 221.811 17.6191C221.232 16.8203 220.699 15.763 220.214 14.4472C219.681 13.0218 219.399 11.7531 219.368 10.6409C219.368 8.24439 220.331 6.0828 222.258 4.15617C223.104 3.31033 224.224 2.55065 225.618 1.87711C227.231 1.10959 228.727 0.725828 230.105 0.725828C232.706 0.725828 235.008 1.5795 237.013 3.28684C238.893 4.88453 240.099 6.86599 240.631 9.2312L233.066 10.8289ZM228.766 31.9279C229.534 31.9279 230.45 31.7556 231.515 31.411C232.643 31.035 233.34 30.6434 233.606 30.2362V30.2597C233.168 29.8838 232.118 28.9439 230.458 27.4402C228.782 25.9365 227.419 24.3153 226.37 22.5767C225.68 23.0779 224.999 23.6653 224.325 24.3388C223.652 25.0124 223.339 26.007 223.386 27.3227C223.386 27.965 223.566 28.6385 223.926 29.3434C224.239 29.9386 224.615 30.4398 225.054 30.8471C225.79 31.5676 227.027 31.9279 228.766 31.9279Z" fill="#272525"/>
<path d="M307.15 25.6781L325.688 0.232422V39H318.075V23.305L307.15 38.3891L296.201 23.305V39H288.589V0.232422L307.15 25.6781Z" fill="#272525"/>
<path d="M363.834 1.03127V8.62032H348.609V16.2564H360.028V23.8454H348.609V31.4815H363.834V39.047H340.997V1.03127H363.834Z" fill="#272525"/>
<path d="M377.71 1.12525H390.068C394.078 1.12525 397.383 2.40967 399.984 4.97852C401.252 6.24727 402.153 7.44554 402.686 8.57333C403.328 9.95173 403.649 11.6199 403.649 13.5779V14.5647C403.649 17.1179 402.85 19.5222 401.252 21.7778C400.109 23.3755 398.597 24.5424 396.718 25.2786L405.529 39H396.224L385.346 22.2477V39H377.733L377.71 1.12525ZM390.797 19.1463C392.175 19.1463 393.358 18.6216 394.345 17.5721C395.316 16.5226 395.801 15.2695 395.801 13.8128C395.801 12.4344 395.3 11.2205 394.298 10.171C393.264 9.16855 391.697 8.66731 389.599 8.66731H385.322V19.1228H388.259V19.1463H390.797Z" fill="#272525"/>
<path d="M450.818 33.6665C447.058 37.3945 442.516 39.2585 437.19 39.2585C431.896 39.2428 427.377 37.3788 423.633 33.6665C419.874 29.9073 417.994 25.3804 417.994 20.0861C417.994 14.8075 419.874 10.2728 423.633 6.48223C427.408 2.70728 431.927 0.81981 437.19 0.81981L437.167 0.913792C442.367 0.913792 446.909 2.7856 450.794 6.52922L445.367 11.9567C443.08 9.70111 440.362 8.57333 437.214 8.57333C434.018 8.57333 431.308 9.70111 429.084 11.9567C426.829 14.2436 425.701 16.9612 425.701 20.1096C425.701 23.2893 426.829 26.007 429.084 28.2626C431.324 30.5025 434.034 31.6224 437.214 31.6224C440.409 31.6224 443.134 30.4946 445.39 28.2391L450.818 33.6665Z" fill="#272525"/>
<path d="M472.306 1.12525V16.2799H484.97V1.12525H492.559V39H484.97V23.8219H472.306V39H464.717V1.12525H472.306Z" fill="#272525"/>
</g>
<defs>
<filter id="filter0_d_1_83" x="0.939453" y="0.232422" width="495.619" height="47.1436" filterUnits="userSpaceOnUse" color-interpolation-filters="sRGB">
<feFlood flood-opacity="0" result="BackgroundImageFix"/>
<feColorMatrix in="SourceAlpha" type="matrix" values="0 0 0 0 0 0 0 0 0 0 0 0 0 0 0 0 0 0 127 0" result="hardAlpha"/>
<feOffset dy="4"/>
<feGaussianBlur stdDeviation="2"/>
<feComposite in2="hardAlpha" operator="out"/>
<feColorMatrix type="matrix" values="0 0 0 0 0 0 0 0 0 0 0 0 0 0 0 0 0 0 0.25 0"/>
<feBlend mode="normal" in2="BackgroundImageFix" result="effect1_dropShadow_1_83"/>
<feBlend mode="normal" in="SourceGraphic" in2="effect1_dropShadow_1_83" result="shape"/>
</filter>
</defs>
</svg>
