<svg width="34" height="34" viewBox="0 0 34 34" fill="none" xmlns="http://www.w3.org/2000/svg">
<path fill-rule="evenodd" clip-rule="evenodd" d="M22.7435 17.8592C26.0929 15.2239 27.4042 10.7555 26.0098 6.72827C24.6155 2.70103 20.822 0 16.5602 0C12.2984 0 8.5049 2.70103 7.11055 6.72827C5.71621 10.7555 7.02745 15.2239 10.3769 17.8592C4.67203 20.1447 0.687893 25.3843 0.0101986 31.4925C-0.0910536 32.413 0.573057 33.2412 1.49353 33.3425C2.41401 33.4437 3.24228 32.7796 3.34353 31.8592C4.10125 25.1137 9.80568 20.0142 16.5935 20.0142C23.3814 20.0142 29.0858 25.1137 29.8435 31.8592C29.9374 32.7074 30.6568 33.3477 31.5102 33.3425H31.6935C32.6029 33.2379 33.2577 32.4193 33.1602 31.5092C32.4792 25.383 28.4727 20.1329 22.7435 17.8592ZM16.5573 16.6756C12.8754 16.6756 9.89063 13.6908 9.89063 10.0089C9.89063 6.32699 12.8754 3.34222 16.5573 3.34222C20.2392 3.34222 23.224 6.32699 23.224 10.0089C23.224 11.777 22.5216 13.4727 21.2713 14.7229C20.0211 15.9732 18.3254 16.6756 16.5573 16.6756Z" fill="#272525"/>
</svg>
